<svg width="64" height="64" viewBox="0 0 64 64" fill="none" xmlns="http://www.w3.org/2000/svg">
<path d="M34 42.3L41.8 43.8L48.2 10.9C48.6 8.7 47.2 6.5 45.1 6.1C42.9 5.7 40.8 7.2 40.4 9.4L34 42.3Z" fill="#F0AE8E"/>
<path d="M45.2 6.1C44.9 6 44.7 6 44.4 6C46.2 6.7 47.2 8.6 46.8 10.6L40.4 43.5L41.8 43.8L48.2 10.9C48.7 8.6 47.3 6.5 45.2 6.1Z" fill="#F9F6E3"/>
<path d="M26 43.3H35.4V7C35.4 4.3 33.3 2 30.7 2C28.2 2 26 4.2 26 7V43.3Z" fill="#F0AE8E"/>
<path d="M30.8 2C30.6 2 30.3 2 30.1 2.1C32.4 2.5 34.1 4.5 34.1 7V43.4H35.5V7C35.5 4.2 33.4 2 30.8 2Z" fill="#F9F6E3"/>
<path d="M21 43.2L29 41.1L20.3 8C19.7 5.7 17.4 4.3 15.2 4.8C13 5.4 11.7 7.7 12.3 10L21 43.2Z" fill="#F0AE8E"/>
<path d="M15.2 4.8L14.6 5.1C16.6 5 18.4 6.3 19 8.4L27.7 41.5L29.1 41.1L20.3 8C19.7 5.7 17.4 4.3 15.2 4.8Z" fill="#F9F6E3"/>
<path d="M4 13.4C2.1 14.3 1.5 16.7 2.5 18.7L15.7 45L22.4 41.6L9.2 15.3C8.2 13.3 5.9 12.5 4 13.4Z" fill="#F0AE8E"/>
<path d="M4 13.4C3.8 13.5 3.6 13.6 3.4 13.8C5.1 13.3 7 14.2 7.9 16L21.1 42.3L22.4 41.7L9.2 15.3C8.2 13.3 5.9 12.5 4 13.4Z" fill="#F9F6E3"/>
<path d="M61.7 29.3C60.1 26.2 55.1 26.4 50 32C46.4 35.9 45.7 37.2 42.1 37.1V33C42.1 33 34.4 27.3 19.1 29.9C19.1 29.9 10.4 31.1 10.4 35.7C10.4 35.7 8.9 46.8 12 53.8C16.6 64.2 40.2 66.9 47.6 49.2C49.1 45.7 52.1 43.1 54.8 39.8C57.9 35.8 63.4 32.6 61.7 29.3Z" fill="#F0AE8E"/>
<path d="M61.7 29.3C61.4 28.7 61 28.3 60.5 27.9C60.6 28 60.7 28.1 60.7 28.3C62.4 31.7 56.9 34.8 53.6 38.8C50.9 42.1 47.9 44.7 46.4 48.2C40 63.5 21.4 63.5 13.6 56.5C20.7 64.5 40.7 65.3 47.4 49.2C48.9 45.7 51.9 43.1 54.6 39.8C57.9 35.8 63.4 32.6 61.7 29.3Z" fill="#F9F6E3"/>
<path d="M43.1 37.1C36.6 34.7 25 39.1 26.6 50.8C26.6 39.9 36.5 37.2 41.9 37.2C42.7 37.1 43.1 37.1 43.1 37.1Z" fill="#F9F6E3"/>
</svg>
