<svg id="Layer_1" data-name="Layer 1" xmlns="http://www.w3.org/2000/svg" viewBox="0 0 227.55 10"><defs><style>.cls-1{fill:none;stroke:#f0ae8e;stroke-width:4px;}</style></defs><g id="Page-1"><g id="desktop-intro"><g id="Shapes"><path id="Dattebayo" class="cls-1" d="M0,2C7.11,2,7.11,8,14.21,8s7.11-6,14.22-6,7.11,6,14.22,6,7.11-6,14.22-6S64,8,71.09,8,78.2,2,85.31,2s7.11,6,14.22,6,7.11-6,14.22-6S120.86,8,128,8s7.11-6,14.22-6,7.11,6,14.22,6,7.11-6,14.22-6,7.11,6,14.23,6S192,2,199.09,2s7.11,6,14.23,6,7.11-6,14.23-6"/></g></g></g></svg>